<?xml version="1.0" encoding="UTF-8" standalone="no"?>
<svg
   xmlns:dc="http://purl.org/dc/elements/1.1/"
   xmlns:cc="http://creativecommons.org/ns#"
   xmlns:rdf="http://www.w3.org/1999/02/22-rdf-syntax-ns#"
   xmlns:svg="http://www.w3.org/2000/svg"
   xmlns="http://www.w3.org/2000/svg"
   xmlns:sodipodi="http://sodipodi.sourceforge.net/DTD/sodipodi-0.dtd"
   xmlns:inkscape="http://www.inkscape.org/namespaces/inkscape"
   height="250"
   version="1.0"
   viewBox="0 0 250 250"
   width="250"
   xml:space="preserve"
   id="svg4136"
   inkscape:version="0.91 r13725"
   sodipodi:docname="apple-orange.svg"
   inkscape:export-filename="C:\code\st\whataboutpets\assets\images\icons\food\apple-orange.png"
   inkscape:export-xdpi="90"
   inkscape:export-ydpi="90"><metadata
     id="metadata4165"><rdf:RDF><cc:Work
         rdf:about=""><dc:format>image/svg+xml</dc:format><dc:type
           rdf:resource="http://purl.org/dc/dcmitype/StillImage" /><dc:title /></cc:Work></rdf:RDF></metadata><defs
     id="defs4163" /><sodipodi:namedview
     pagecolor="#ffb74d"
     bordercolor="#666666"
     borderopacity="1"
     objecttolerance="10"
     gridtolerance="10"
     guidetolerance="10"
     inkscape:pageopacity="1"
     inkscape:pageshadow="2"
     inkscape:window-width="1920"
     inkscape:window-height="1018"
     id="namedview4161"
     showgrid="false"
     inkscape:zoom="2.7287894"
     inkscape:cx="127.51257"
     inkscape:cy="125.95309"
     inkscape:window-x="1272"
     inkscape:window-y="-8"
     inkscape:window-maximized="1"
     inkscape:current-layer="svg4136" /><g
     id="Multicolor"
     transform="matrix(3.1746019,0,0,3.1746019,-50.581084,-48.015763)"><g
       id="g4139"><g
         id="g4141"><path
           d="m 55,36.812 c 0.688,-0.003 1.296,-0.083 1.866,-0.209 L 58,23 l -6.564,0 1.122,13.458 c 0.732,0.214 1.518,0.349 2.442,0.354 z"
           style="fill:#9c6144"
           id="path4143"
           inkscape:connector-curvature="0" /></g><g
         id="g4145"><path
           d="m 71,33 c 2.848,0 5.689,0.735 8.177,2.26 1.594,-5.598 0.376,-11.813 0.376,-11.813 0,0 -11.638,-2.286 -17.405,3.481 -2.969,2.969 -4.812,6.473 -5.388,9.7 C 60.406,35.871 62.288,33 71,33 Z"
           style="fill:#099686"
           id="path4147"
           inkscape:connector-curvature="0" /></g><g
         id="g4149"><path
           d="M 71,33 C 61,33 60,36.786 55,36.812 50,36.786 49,33 39,33 31,33 23,38.679 23,51.929 23,63.286 36,86 44,86 52,86 51,82.214 55,82.214 59,82.214 58,86 66,86 74,86 87,63.286 87,51.929 87,38.679 79,33 71,33 Z"
           style="fill:#df2c2c"
           id="path4151"
           inkscape:connector-curvature="0" /></g><g
         id="g4153"><path
           d="m 79.553,23.447 c 0,0 -11.638,-2.286 -17.405,3.481 -2.969,2.969 -4.812,6.473 -5.388,9.7 3.53,-0.733 5.427,-3.441 13.451,-3.612 l 9.377,-9.377 c -0.021,-0.115 -0.035,-0.192 -0.035,-0.192 z"
           style="fill:#12b2a0"
           id="path4155"
           inkscape:connector-curvature="0" /></g><g
         id="g4157"><path
           d="M 39,33 C 31,33 23,38.679 23,51.929 23,63.286 36,86 44,86 c 8,0 7,-3.786 11,-3.786 L 55,36.812 C 50,36.786 49,33 39,33 Z"
           style="fill:#fa5655"
           id="path4159"
           inkscape:connector-curvature="0" /></g></g></g></svg>