<?xml version="1.0" encoding="UTF-8" standalone="no"?>
<svg
   xmlns:dc="http://purl.org/dc/elements/1.1/"
   xmlns:cc="http://creativecommons.org/ns#"
   xmlns:rdf="http://www.w3.org/1999/02/22-rdf-syntax-ns#"
   xmlns:svg="http://www.w3.org/2000/svg"
   xmlns="http://www.w3.org/2000/svg"
   xmlns:sodipodi="http://sodipodi.sourceforge.net/DTD/sodipodi-0.dtd"
   xmlns:inkscape="http://www.inkscape.org/namespaces/inkscape"
   height="250"
   version="1.0"
   viewBox="0 0 250 250"
   width="250"
   xml:space="preserve"
   id="svg4136"
   inkscape:version="0.91 r13725"
   sodipodi:docname="banana-orange.svg"
   inkscape:export-filename="C:\code\st\whataboutpets\assets\images\icons\food\banana-orange.png"
   inkscape:export-xdpi="90"
   inkscape:export-ydpi="90"><metadata
     id="metadata4165"><rdf:RDF><cc:Work
         rdf:about=""><dc:format>image/svg+xml</dc:format><dc:type
           rdf:resource="http://purl.org/dc/dcmitype/StillImage" /><dc:title /></cc:Work></rdf:RDF></metadata><defs
     id="defs4163" /><sodipodi:namedview
     pagecolor="#ffb74d"
     bordercolor="#666666"
     borderopacity="1"
     objecttolerance="10"
     gridtolerance="10"
     guidetolerance="10"
     inkscape:pageopacity="1"
     inkscape:pageshadow="2"
     inkscape:window-width="1920"
     inkscape:window-height="1018"
     id="namedview4161"
     showgrid="false"
     inkscape:zoom="2.7287894"
     inkscape:cx="9.6741175"
     inkscape:cy="149.43383"
     inkscape:window-x="1272"
     inkscape:window-y="-8"
     inkscape:window-maximized="1"
     inkscape:current-layer="svg4136" /><g
     id="Multicolor"
     transform="matrix(3.3945885,0,0,3.3945885,-52.995143,-61.416892)"><g
       id="g4929"><g
         id="g4931"><path
           id="path4933"
           style="fill:#fbe158"
           d="m 69,23.775 c -8.347,-4.174 -31.855,8.768 -28.83,32.44 2.982,18.954 12.928,27.476 19.217,25.92 l 3.527,4.276 c 0.351,0.426 0.982,0.487 1.408,0.135 l 2.314,-1.909 c 0.426,-0.352 0.487,-0.982 0.135,-1.408 L 63.466,79.222 C 67.861,73.29 59.887,65.191 57.93,54.424 55.2,41.614 66.03,32.754 69,30.774 c 3,-1.999 2,-5.999 0,-6.999 z"
           inkscape:connector-curvature="0" /></g><g
         id="g4935"><path
           id="path4937"
           style="fill:#fcf6c2"
           d="m 50.218,55.256 c 17.86,-12.768 25.598,5.748 21.927,19.085 -0.293,1.064 -1.786,1.137 -2.205,0.116 C 66.962,67.182 61.786,55.914 50.218,55.256 Z"
           inkscape:connector-curvature="0" /></g><g
         id="g4939"><path
           id="path4941"
           style="fill:#f3b607"
           d="m 66.771,83.23 -3.305,-4.007 c 3.861,-5.212 -1.824,-12.097 -4.589,-20.995 -2.365,-1.633 -5.162,-2.737 -8.494,-2.957 -4.027,1.057 -6.974,3.305 -9.172,6.106 3.815,15.332 12.49,22.164 18.176,20.758 l 3.527,4.276 c 0.351,0.426 0.982,0.487 1.408,0.135 l 2.314,-1.909 c 0.426,-0.351 0.487,-0.981 0.135,-1.407 z"
           inkscape:connector-curvature="0" /></g><g
         id="g4943"><path
           id="path4945"
           style="fill:#fcf6c2"
           d="M 50.524,55.227 C 30.558,46.096 26.49,65.746 32.635,78.14 c 0.49,0.989 1.97,0.776 2.186,-0.306 1.538,-7.71 4.472,-19.758 15.703,-22.607 z"
           inkscape:connector-curvature="0" /></g><g
         id="g4947"><path
           id="path4949"
           style="fill:#fcf6c2"
           d="M 39.916,52.347 68.638,23.625 C 60.493,20.178 39.744,31.461 39.916,52.347 Z"
           inkscape:connector-curvature="0" /></g></g></g></svg>