<?xml version="1.0" encoding="UTF-8" standalone="no"?>
<svg
   xmlns:dc="http://purl.org/dc/elements/1.1/"
   xmlns:cc="http://creativecommons.org/ns#"
   xmlns:rdf="http://www.w3.org/1999/02/22-rdf-syntax-ns#"
   xmlns:svg="http://www.w3.org/2000/svg"
   xmlns="http://www.w3.org/2000/svg"
   xmlns:sodipodi="http://sodipodi.sourceforge.net/DTD/sodipodi-0.dtd"
   xmlns:inkscape="http://www.inkscape.org/namespaces/inkscape"
   height="250"
   version="1.0"
   viewBox="0 0 250 250"
   width="250"
   xml:space="preserve"
   id="svg4136"
   inkscape:version="0.91 r13725"
   sodipodi:docname="1456191357_Broccoli_background.svg"
   inkscape:export-filename="C:\code\st\whataboutpets\assets\images\icons\food\broccoli-orange.png"
   inkscape:export-xdpi="90"
   inkscape:export-ydpi="90"><metadata
     id="metadata4165"><rdf:RDF><cc:Work
         rdf:about=""><dc:format>image/svg+xml</dc:format><dc:type
           rdf:resource="http://purl.org/dc/dcmitype/StillImage" /><dc:title /></cc:Work></rdf:RDF></metadata><defs
     id="defs4163" /><sodipodi:namedview
     pagecolor="#ffb74d"
     bordercolor="#666666"
     borderopacity="1"
     objecttolerance="10"
     gridtolerance="10"
     guidetolerance="10"
     inkscape:pageopacity="1"
     inkscape:pageshadow="2"
     inkscape:window-width="1920"
     inkscape:window-height="1018"
     id="namedview4161"
     showgrid="false"
     inkscape:zoom="2.7287894"
     inkscape:cx="89.290407"
     inkscape:cy="149.43383"
     inkscape:window-x="1272"
     inkscape:window-y="-8"
     inkscape:window-maximized="1"
     inkscape:current-layer="svg4136" /><g
     id="Multicolor"
     transform="matrix(3.2930294,0,0,3.2930294,-56.354679,-55.145641)"><g
       id="g4159"><g
         id="g4161"><path
           id="path4163"
           style="fill:#e2e4e5"
           d="M 84.364,55.334 C 84.31,55.28 84.25,55.234 84.195,55.181 87.126,50.539 85.251,44.322 80.147,42.124 82.118,38.686 81.644,34.229 78.708,31.292 75.772,28.355 71.314,27.882 67.876,29.853 65.67,24.734 59.447,22.882 54.819,25.805 54.766,25.75 54.72,25.69 54.666,25.636 c -3.515,-3.515 -9.213,-3.515 -12.728,0 -3.515,3.515 -3.515,9.213 0,12.728 -1.104,1.104 -1.86,2.423 -2.27,3.822 L 24.136,72.053 c -1.61,3.097 -1.027,6.88 1.441,9.348 l 3.022,3.022 c 2.468,2.468 6.251,3.051 9.348,1.441 L 67.814,70.333 c 1.399,-0.41 2.718,-1.167 3.822,-2.27 3.515,3.515 9.213,3.515 12.728,0 3.515,-3.515 3.515,-9.214 0,-12.729 z M 30.624,73.719 42.971,51.965 c 0.559,0.41 1.151,0.756 1.77,1.023 -1.288,2.246 -1.525,4.926 -0.72,7.334 L 30.624,73.719 Z m 5.657,5.657 13.397,-13.397 c 2.408,0.805 5.088,0.568 7.334,-0.72 0.267,0.619 0.613,1.211 1.023,1.77 L 36.281,79.376 Z"
           inkscape:connector-curvature="0" /></g><g
         id="g4165"><path
           id="path4167"
           style="fill:#ffffff"
           d="m 78.707,31.293 c -2.937,-2.937 -7.394,-3.41 -10.832,-1.439 -2.206,-5.119 -8.429,-6.971 -13.057,-4.048 -0.053,-0.055 -0.099,-0.115 -0.153,-0.169 -3.515,-3.515 -9.213,-3.515 -12.728,0 -3.515,3.515 -3.515,9.213 0,12.728 -1.104,1.104 -1.86,2.423 -2.27,3.822 L 24.136,72.053 c -1.61,3.097 -1.027,6.88 1.441,9.348 l 1.67,1.67 51.612,-51.612 C 78.807,31.404 78.76,31.346 78.707,31.293 Z M 44.021,60.322 30.624,73.719 42.971,51.965 c 0.559,0.41 1.151,0.756 1.77,1.023 -1.288,2.247 -1.525,4.926 -0.72,7.334 z"
           inkscape:connector-curvature="0" /></g><g
         id="g4169"><path
           id="path4171"
           style="fill:#0c7367"
           d="M 84.364,55.334 C 84.31,55.28 84.25,55.234 84.195,55.181 87.126,50.539 85.251,44.322 80.147,42.124 82.118,38.686 81.644,34.229 78.708,31.292 75.772,28.355 71.314,27.882 67.876,29.853 65.67,24.734 59.447,22.882 54.819,25.805 54.766,25.75 54.72,25.69 54.666,25.636 c -3.515,-3.515 -9.213,-3.515 -12.728,0 -3.515,3.515 -3.515,9.213 0,12.728 -3.515,3.515 -3.515,9.213 0,12.728 0.831,0.831 1.786,1.458 2.803,1.896 -1.971,3.438 -1.497,7.895 1.439,10.832 2.936,2.937 7.394,3.41 10.832,1.439 0.438,1.017 1.065,1.972 1.896,2.803 3.515,3.515 9.213,3.515 12.728,0 3.515,3.515 9.213,3.515 12.728,0 3.515,-3.514 3.515,-9.213 0,-12.728 z"
           inkscape:connector-curvature="0" /></g><g
         id="g4173"><path
           id="path4175"
           style="fill:#099686"
           d="m 78.707,31.293 c -2.937,-2.937 -7.394,-3.41 -10.832,-1.439 -2.206,-5.119 -8.429,-6.971 -13.057,-4.048 -0.053,-0.055 -0.099,-0.115 -0.153,-0.169 -3.515,-3.515 -9.213,-3.515 -12.728,0 -3.515,3.515 -3.515,9.213 0,12.728 -3.515,3.515 -3.515,9.213 0,12.728 0.831,0.831 1.786,1.458 2.803,1.896 -1.971,3.438 -1.497,7.895 1.439,10.832 0.038,0.038 0.08,0.071 0.118,0.109 L 78.814,31.413 c -0.036,-0.041 -0.069,-0.082 -0.107,-0.12 z"
           inkscape:connector-curvature="0" /></g></g></g></svg>