<?xml version="1.0" encoding="UTF-8" standalone="no"?>
<svg
   xmlns:dc="http://purl.org/dc/elements/1.1/"
   xmlns:cc="http://creativecommons.org/ns#"
   xmlns:rdf="http://www.w3.org/1999/02/22-rdf-syntax-ns#"
   xmlns:svg="http://www.w3.org/2000/svg"
   xmlns="http://www.w3.org/2000/svg"
   xmlns:sodipodi="http://sodipodi.sourceforge.net/DTD/sodipodi-0.dtd"
   xmlns:inkscape="http://www.inkscape.org/namespaces/inkscape"
   height="250"
   version="1.0"
   viewBox="0 0 250 250"
   width="250"
   xml:space="preserve"
   id="svg4136"
   inkscape:version="0.91 r13725"
   sodipodi:docname="celery-green.svg"
   inkscape:export-filename="C:\code\st\whataboutpets\assets\images\icons\food\celery-blue.png"
   inkscape:export-xdpi="90"
   inkscape:export-ydpi="90"><metadata
     id="metadata4165"><rdf:RDF><cc:Work
         rdf:about=""><dc:format>image/svg+xml</dc:format><dc:type
           rdf:resource="http://purl.org/dc/dcmitype/StillImage" /><dc:title></dc:title></cc:Work></rdf:RDF></metadata><defs
     id="defs4163" /><sodipodi:namedview
     pagecolor="#76d5e7"
     bordercolor="#666666"
     borderopacity="1"
     objecttolerance="10"
     gridtolerance="10"
     guidetolerance="10"
     inkscape:pageopacity="1"
     inkscape:pageshadow="2"
     inkscape:window-width="1920"
     inkscape:window-height="1018"
     id="namedview4161"
     showgrid="false"
     inkscape:zoom="2.8021945"
     inkscape:cx="107.37974"
     inkscape:cy="124.15907"
     inkscape:window-x="1272"
     inkscape:window-y="-8"
     inkscape:window-maximized="1"
     inkscape:current-layer="layer1"><inkscape:grid
       type="xygrid"
       id="grid4939" /></sodipodi:namedview><g
     inkscape:groupmode="layer"
     id="layer2"
     inkscape:label="Layer 2"
     style="display:inline" /><g
     inkscape:groupmode="layer"
     id="layer3"
     inkscape:label="Layer 3"
     style="display:inline" /><g
     inkscape:groupmode="layer"
     id="layer1"
     inkscape:label="Layer 1"
     style="display:inline"><g
       id="g5037"
       transform="matrix(1.4403748,0,0,1.4403748,-40.865865,-55.05707)"><path
         sodipodi:nodetypes="ccccc"
         inkscape:connector-curvature="0"
         id="path5004-6"
         d="m 148.50664,125.14995 c -31.2995,28.57498 -62.908486,94.27119 -90.599136,69.22845 -6.69766,-2.01177 -11.00442,-6.13316 -12.03858,-13.14214 -20.84352,-27.90171 41.74979,-62.05115 73.042786,-86.256625 z"
         style="display:inline;fill:#e2e4e5;fill-opacity:1;fill-rule:evenodd;stroke:none;stroke-width:1px;stroke-linecap:butt;stroke-linejoin:miter;stroke-opacity:1" /><path
         inkscape:connector-curvature="0"
         id="path5004"
         d="M 50.196731,190.04864 132.05025,108.40606 118.91548,95.015435 C 87.622482,119.22091 25.030946,153.36959 45.874464,181.2713 c 0.547952,3.7137 2.067964,6.56924 4.322267,8.77734 z"
         style="display:inline;fill:#ffffff;fill-opacity:1;fill-rule:evenodd;stroke:none;stroke-width:1px;stroke-linecap:butt;stroke-linejoin:miter;stroke-opacity:1" /><g
         transform="matrix(1.9194771,0,0,1.9194771,311.23698,-185.57268)"
         id="g4992"
         style="display:inline"><g
           id="g4940"
           transform="translate(-150.92993,100.36464)"><path
             id="path4942"
             style="fill:#0c7367"
             d="M 84.364,55.334 C 84.31,55.28 84.25,55.234 84.195,55.181 87.126,50.539 85.251,44.322 80.147,42.124 82.118,38.686 81.644,34.229 78.708,31.292 75.772,28.355 71.314,27.882 67.876,29.853 65.67,24.734 59.447,22.882 54.819,25.805 54.766,25.75 54.72,25.69 54.666,25.636 c -3.515,-3.515 -9.213,-3.515 -12.728,0 -3.515,3.515 -3.515,9.213 0,12.728 -3.515,3.515 -3.515,9.213 0,12.728 0.831,0.831 1.786,1.458 2.803,1.896 -1.971,3.438 -1.497,7.895 1.439,10.832 2.936,2.937 7.394,3.41 10.832,1.439 0.438,1.017 1.065,1.972 1.896,2.803 3.515,3.515 9.213,3.515 12.728,0 3.515,3.515 9.213,3.515 12.728,0 3.515,-3.514 3.515,-9.213 0,-12.728 z"
             inkscape:connector-curvature="0" /></g><g
           id="g4944"
           transform="translate(-150.92993,100.36464)"><path
             id="path4946"
             style="fill:#099686"
             d="m 78.707,31.293 c -2.937,-2.937 -7.394,-3.41 -10.832,-1.439 -2.206,-5.119 -8.429,-6.971 -13.057,-4.048 -0.053,-0.055 -0.099,-0.115 -0.153,-0.169 -3.515,-3.515 -9.213,-3.515 -12.728,0 -3.515,3.515 -3.515,9.213 0,12.728 -3.515,3.515 -3.515,9.213 0,12.728 0.831,0.831 1.786,1.458 2.803,1.896 -1.971,3.438 -1.497,7.895 1.439,10.832 0.038,0.038 0.08,0.071 0.118,0.109 L 78.814,31.413 c -0.036,-0.041 -0.069,-0.082 -0.107,-0.12 z"
             inkscape:connector-curvature="0" /></g></g></g></g></svg>