<?xml version="1.0" encoding="UTF-8" standalone="no"?>
<svg
   xmlns:dc="http://purl.org/dc/elements/1.1/"
   xmlns:cc="http://creativecommons.org/ns#"
   xmlns:rdf="http://www.w3.org/1999/02/22-rdf-syntax-ns#"
   xmlns:svg="http://www.w3.org/2000/svg"
   xmlns="http://www.w3.org/2000/svg"
   xmlns:sodipodi="http://sodipodi.sourceforge.net/DTD/sodipodi-0.dtd"
   xmlns:inkscape="http://www.inkscape.org/namespaces/inkscape"
   height="250"
   version="1.0"
   viewBox="0 0 250 250"
   width="250"
   xml:space="preserve"
   id="svg4136"
   inkscape:version="0.91 r13725"
   sodipodi:docname="1456104337_Grape_background.svg"
   inkscape:export-filename="C:\code\st\whataboutpets\assets\images\icons\food\grape-orange.png"
   inkscape:export-xdpi="90"
   inkscape:export-ydpi="90"><metadata
     id="metadata4165"><rdf:RDF><cc:Work
         rdf:about=""><dc:format>image/svg+xml</dc:format><dc:type
           rdf:resource="http://purl.org/dc/dcmitype/StillImage" /><dc:title /></cc:Work></rdf:RDF></metadata><defs
     id="defs4163" /><sodipodi:namedview
     pagecolor="#ffb74d"
     bordercolor="#666666"
     borderopacity="1"
     objecttolerance="10"
     gridtolerance="10"
     guidetolerance="10"
     inkscape:pageopacity="1"
     inkscape:pageshadow="2"
     inkscape:window-width="1920"
     inkscape:window-height="1018"
     id="namedview4161"
     showgrid="false"
     inkscape:zoom="3.0016683"
     inkscape:cx="125.61982"
     inkscape:cy="125"
     inkscape:window-x="1272"
     inkscape:window-y="-8"
     inkscape:window-maximized="1"
     inkscape:current-layer="svg4136" /><g
     id="Multicolor"
     transform="matrix(3.1442891,0,0,3.1442891,-47.315653,-48.553441)"><g
       id="g4726"><g
         id="g4728"><path
           id="path4730"
           style="fill:#9c6144"
           d="m 47.251,27.22 c 4.736,1.902 5.642,5.244 5.76,10.512 C 54.246,39.14 55,40.98 55,43 55,40.966 55.766,39.115 57.016,37.703 56.9,32.027 55.82,26.306 48.625,23.463 c -0.256,-0.101 -0.541,-0.093 -0.791,0.023 -0.25,0.116 -0.439,0.33 -0.526,0.59 l -0.634,1.901 c -0.167,0.502 0.086,1.047 0.577,1.243 z"
           inkscape:connector-curvature="0" /></g><g
         id="g4732"><path
           id="path4734"
           style="fill:#df2c2c"
           d="M 79.936,35.053 C 75.099,34.504 71,38.274 71,43 c 0,-4.418 -3.582,-8 -8,-8 -4.418,0 -8,3.582 -8,8 0,-4.418 -3.582,-8 -8,-8 -4.418,0 -8,3.582 -8,8 0,-4.723 -4.094,-8.491 -8.927,-7.948 -3.509,0.394 -6.416,3.154 -6.97,6.642 -0.853,5.369 3.667,9.979 9.029,9.217 C 31.418,52.108 31,53.504 31,55 c 0,4.784 4.212,8.61 9.133,7.911 C 39.418,64.108 39,65.504 39,67 c 0,4.784 4.212,8.61 9.133,7.911 -1.007,1.688 -1.426,3.768 -0.915,5.97 0.7,3.015 3.183,5.399 6.224,5.972 C 58.545,87.815 63,83.928 63,79 63,77.504 62.582,76.108 61.867,74.911 66.785,75.609 71,71.788 71,67 c 0,-1.496 -0.418,-2.892 -1.133,-4.089 6.717,0.954 11.408,-6.29 8,-12 5.354,0.761 9.875,-3.835 9.032,-9.204 -0.549,-3.49 -3.453,-6.256 -6.963,-6.654 z"
           inkscape:connector-curvature="0" /></g><g
         id="g4736"><path
           id="path4738"
           style="fill:#fa5655"
           d="m 47,35 c -4.418,0 -8,3.582 -8,8 0,-4.724 -4.094,-8.491 -8.927,-7.948 -3.509,0.394 -6.416,3.154 -6.969,6.642 -0.853,5.369 3.667,9.979 9.029,9.217 C 31.418,52.108 31,53.503 31,55 c 0,4.784 4.212,8.61 9.133,7.911 C 39.418,64.108 39,65.503 39,67 c 0,4.784 4.212,8.61 9.133,7.911 -1.007,1.688 -1.426,3.768 -0.915,5.97 0.7,3.014 3.183,5.399 6.224,5.972 0.528,0.1 1.047,0.135 1.557,0.135 L 54.999,43 C 55,38.582 51.418,35 47,35 Z"
           inkscape:connector-curvature="0" /></g><g
         id="g4740"><path
           id="path4742"
           style="fill:#12b2a0"
           d="m 54.286,38.07 c 6.855,6.824 6.268,18.37 -1.989,24.364 1.28,-3.015 1.648,-6.318 1.103,-9.499 -0.752,4.248 -3.712,7.668 -7.602,9.139 0.829,-2.264 0.958,-4.719 0.394,-7.044 -1.69,7.874 -9.325,9.365 -17.305,8.553 -1.267,-11.923 3.232,-16.192 8.475,-17.343 -2.328,-0.553 -4.781,-0.414 -7.042,0.426 1.451,-3.89 4.854,-6.871 9.105,-7.643 -3.184,-0.53 -6.485,-0.148 -9.494,1.145 5.954,-8.271 17.489,-8.933 24.355,-2.098 z"
           inkscape:connector-curvature="0" /></g><g
         id="g4744"><path
           id="path4746"
           style="fill:#099686"
           d="m 28.887,63.602 c 0.001,0.008 0.002,0.02 0.002,0.02 7.983,0.813 15.615,-0.68 17.305,-8.553 0.564,2.325 0.435,4.779 -0.394,7.044 3.883,-1.468 6.849,-4.885 7.602,-9.139 0.545,3.181 0.177,6.484 -1.103,9.499 8.234,-5.981 8.842,-17.482 2.033,-24.316 L 28.887,63.602 Z"
           inkscape:connector-curvature="0" /></g></g></g></svg>