<?xml version="1.0" encoding="UTF-8" standalone="no"?>
<svg
   xmlns:dc="http://purl.org/dc/elements/1.1/"
   xmlns:cc="http://creativecommons.org/ns#"
   xmlns:rdf="http://www.w3.org/1999/02/22-rdf-syntax-ns#"
   xmlns:svg="http://www.w3.org/2000/svg"
   xmlns="http://www.w3.org/2000/svg"
   xmlns:sodipodi="http://sodipodi.sourceforge.net/DTD/sodipodi-0.dtd"
   xmlns:inkscape="http://www.inkscape.org/namespaces/inkscape"
   height="250"
   version="1.0"
   viewBox="0 0 250 250"
   width="250"
   xml:space="preserve"
   id="svg4136"
   inkscape:version="0.91 r13725"
   sodipodi:docname="watermelon-orange.svg"
   inkscape:export-filename="C:\code\st\whataboutpets\assets\images\icons\food\watermelon-orange.png"
   inkscape:export-xdpi="90"
   inkscape:export-ydpi="90"><metadata
     id="metadata4165"><rdf:RDF><cc:Work
         rdf:about=""><dc:format>image/svg+xml</dc:format><dc:type
           rdf:resource="http://purl.org/dc/dcmitype/StillImage" /><dc:title /></cc:Work></rdf:RDF></metadata><defs
     id="defs4163" /><sodipodi:namedview
     pagecolor="#ffb74d"
     bordercolor="#666666"
     borderopacity="1"
     objecttolerance="10"
     gridtolerance="10"
     guidetolerance="10"
     inkscape:pageopacity="1"
     inkscape:pageshadow="2"
     inkscape:window-width="1920"
     inkscape:window-height="1018"
     id="namedview4161"
     showgrid="false"
     inkscape:zoom="3.2450468"
     inkscape:cx="123.28701"
     inkscape:cy="125.12159"
     inkscape:window-x="1272"
     inkscape:window-y="-8"
     inkscape:window-maximized="1"
     inkscape:current-layer="svg4136" /><g
     id="Multicolor-6"
     transform="matrix(2.9018813,0,0,2.9018813,-35.951818,-35.086466)"><g
       id="g4814"><g
         id="g4816"><path
           id="path4818"
           style="fill:#099686"
           d="m 73.903,23.944 c 0.464,-0.464 1.1,-0.715 1.756,-0.693 0.656,0.022 1.274,0.315 1.706,0.809 13.064,14.906 12.488,37.609 -1.73,51.826 -14.218,14.218 -36.92,14.795 -51.826,1.73 -0.493,-0.432 -0.785,-1.05 -0.807,-1.706 -0.022,-0.656 0.228,-1.293 0.692,-1.757 L 73.903,23.944 Z"
           inkscape:connector-curvature="0" /></g><g
         id="g4820"><path
           id="path4822"
           style="fill:#12b2a0"
           d="m 77.366,24.059 c -0.433,-0.494 -1.05,-0.787 -1.707,-0.809 -0.656,-0.022 -1.292,0.229 -1.756,0.693 l -50.21,50.209 c -0.464,0.464 -0.714,1.101 -0.692,1.757 0.022,0.656 0.314,1.273 0.807,1.706 2.819,2.471 5.918,4.452 9.185,5.947 L 83.312,33.243 c -1.495,-3.266 -3.476,-6.365 -5.946,-9.184 z"
           inkscape:connector-curvature="0" /></g><g
         id="g4824"><path
           id="path4826"
           style="fill:#f0f1f1"
           d="m 72.972,24.861 c 13.148,13.148 13.148,34.463 0,47.61 -13.148,13.147 -34.463,13.148 -47.61,0 l 47.61,-47.61 z"
           inkscape:connector-curvature="0" /></g><g
         id="g4828"><path
           id="path4830"
           style="fill:#ffffff"
           d="m 72.972,24.861 -47.61,47.61 c 3.324,3.324 7.171,5.804 11.275,7.448 L 80.42,36.136 C 78.777,32.032 76.296,28.185 72.972,24.861 Z"
           inkscape:connector-curvature="0" /></g><g
         id="g4832"><path
           id="path4834"
           style="fill:#df2c2c"
           d="m 69.603,28.243 c 11.491,11.491 11.491,30.12 0,41.61 -11.491,11.49 -30.12,11.491 -41.61,0 l 41.61,-41.61 z"
           inkscape:connector-curvature="0" /></g><g
         id="g4836"><path
           id="path4838"
           style="fill:#fa5655"
           d="m 69.603,28.243 -41.611,41.61 c 3.366,3.366 7.346,5.738 11.578,7.132 L 76.735,39.82 C 75.341,35.589 72.969,31.609 69.603,28.243 Z"
           inkscape:connector-curvature="0" /></g><g
         id="g4840"><path
           id="path4842"
           style="fill:#84462d"
           d="m 45.572,66.854 c 0.499,1.211 -0.079,2.598 -1.29,3.097 -1.211,0.499 -2.598,-0.079 -3.097,-1.29 -0.499,-1.211 0.387,-5.29 0.387,-5.29 0,0 3.501,2.271 4,3.483 z"
           inkscape:connector-curvature="0" /></g><g
         id="g4844"><path
           id="path4846"
           style="fill:#84462d"
           d="m 66.603,45.823 c 1.211,0.499 2.598,-0.079 3.097,-1.29 0.499,-1.211 -0.079,-2.598 -1.29,-3.097 -1.211,-0.499 -5.29,0.387 -5.29,0.387 0,0 2.272,3.501 3.483,4 z"
           inkscape:connector-curvature="0" /></g><g
         id="g4848"><path
           id="path4850"
           style="fill:#84462d"
           d="m 57.185,54.08 c 0.926,0.926 0.926,2.428 0,3.355 -0.926,0.927 -2.428,0.926 -3.355,0 -0.927,-0.926 -1.677,-5.032 -1.677,-5.032 0,0 4.105,0.751 5.032,1.677 z"
           inkscape:connector-curvature="0" /></g><g
         id="g4852"><path
           id="path4854"
           style="fill:#692e19"
           d="m 57.807,66.505 c 0.956,0.896 1.004,2.397 0.108,3.353 -0.896,0.956 -2.397,1.004 -3.353,0.108 -0.956,-0.896 -1.839,-4.975 -1.839,-4.975 0,0 4.128,0.618 5.084,1.514 z"
           inkscape:connector-curvature="0" /></g><g
         id="g4856"><path
           id="path4858"
           style="fill:#692e19"
           d="m 66.227,58.104 c 0.886,0.965 2.387,1.029 3.352,0.143 0.965,-0.886 1.029,-2.387 0.143,-3.352 -0.886,-0.965 -4.956,-1.891 -4.956,-1.891 0,0 0.575,4.134 1.461,5.1 z"
           inkscape:connector-curvature="0" /></g></g></g></svg>