<?xml version="1.0" encoding="UTF-8" standalone="no"?>
<svg
   xmlns:dc="http://purl.org/dc/elements/1.1/"
   xmlns:cc="http://creativecommons.org/ns#"
   xmlns:rdf="http://www.w3.org/1999/02/22-rdf-syntax-ns#"
   xmlns:svg="http://www.w3.org/2000/svg"
   xmlns="http://www.w3.org/2000/svg"
   xmlns:sodipodi="http://sodipodi.sourceforge.net/DTD/sodipodi-0.dtd"
   xmlns:inkscape="http://www.inkscape.org/namespaces/inkscape"
   height="260"
   style="clip-rule:evenodd;fill-rule:evenodd;image-rendering:optimizeQuality;shape-rendering:geometricPrecision;text-rendering:geometricPrecision"
   viewBox="0 0 260 260"
   width="260"
   xml:space="preserve"
   id="svg2"
   version="1.1"
   inkscape:version="0.91 r13725"
   sodipodi:docname="favicon.svg"
   inkscape:export-filename="C:\code\st\whataboutpets\assets\images\icons\favicon.png"
   inkscape:export-xdpi="90"
   inkscape:export-ydpi="90"><metadata
     id="metadata20"><rdf:RDF><cc:Work
         rdf:about=""><dc:format>image/svg+xml</dc:format><dc:type
           rdf:resource="http://purl.org/dc/dcmitype/StillImage" /><dc:title></dc:title></cc:Work></rdf:RDF></metadata><sodipodi:namedview
     pagecolor="#ffffff"
     bordercolor="#666666"
     borderopacity="1"
     objecttolerance="10"
     gridtolerance="10"
     guidetolerance="10"
     inkscape:pageopacity="0"
     inkscape:pageshadow="2"
     inkscape:window-width="1920"
     inkscape:window-height="1018"
     id="namedview18"
     showgrid="false"
     inkscape:zoom="1.84375"
     inkscape:cx="-27.118644"
     inkscape:cy="64"
     inkscape:window-x="1272"
     inkscape:window-y="-8"
     inkscape:window-maximized="1"
     inkscape:current-layer="svg2"
     showguides="true"
     inkscape:guide-bbox="true"><sodipodi:guide
       position="-217.49153,129.08475"
       orientation="0,1"
       id="guide3348" /><sodipodi:guide
       position="129.62712,188.74576"
       orientation="1,0"
       id="guide3350" /></sodipodi:namedview><defs
     id="defs4"><style
       type="text/css"
       id="style6"><![CDATA[
    .fil0 {fill:none}
    .fil1 {fill:#373435}
   ]]></style></defs><circle
     style="fill:#2196f3;fill-opacity:1"
     id="path4172"
     cx="130"
     cy="130"
     r="130" /><rect
     class="fil0"
     height="350"
     id="_464363696"
     width="350"
     x="-46"
     y="-44.000004"
     style="fill:none" /><g
     id="g4174"
     transform="matrix(0.97809005,0,0,0.98657253,3.4677133,-3.4040254)"><path
       class="fil1"
       d="m 105.18712,117.98171 c -9.934232,11.09689 -16.076903,38.6099 -32.84806,52.01588 -16.774493,13.40605 -33.545869,32.17651 -14.675275,52.55182 18.867258,20.3755 51.715375,3.21666 58.704385,0 3.13917,-1.44686 6.98884,-2.7839 11.34877,-3.33293 4.36318,0.54903 8.20962,1.88608 11.35202,3.33293 6.98884,3.21666 39.83707,20.3755 58.70438,0 18.87051,-20.3755 2.09924,-39.14583 -14.67527,-52.55182 -16.77127,-13.40604 -22.91394,-40.91905 -32.84806,-52.01588 -5.60335,-6.25893 -14.44598,-9.92452 -22.53285,-9.60157 -8.08691,-0.32296 -16.92628,3.34264 -22.52963,9.60157 z"
       id="_464360696"
       inkscape:connector-curvature="0"
       style="fill:#ffffff;fill-opacity:1" /><ellipse
       class="fil1"
       id="_464361680"
       rx="24.860491"
       ry="35.943195"
       transform="matrix(0.98827273,-0.15269912,0.15269788,0.98827292,0,0)"
       cx="31.078606"
       cy="138.98387"
       style="fill:#ffffff;fill-opacity:1" /><ellipse
       class="fil1"
       id="_464358896"
       rx="24.860491"
       ry="35.943195"
       transform="matrix(-0.98827273,-0.15269912,-0.15269788,0.98827292,0,0)"
       cx="-223.90024"
       cy="99.586815"
       style="fill:#ffffff;fill-opacity:1" /><ellipse
       class="fil1"
       id="_464358824"
       rx="24.860533"
       ry="35.943256"
       transform="matrix(0.98076819,0.1951762,-0.19517483,0.98076847,0,0)"
       cx="106.46471"
       cy="45.317795"
       style="fill:#ffffff;fill-opacity:1" /><ellipse
       class="fil1"
       id="_464360312"
       rx="24.860533"
       ry="35.943256"
       transform="matrix(-0.98076819,0.1951762,0.19517483,0.98076847,0,0)"
       cx="-146.57796"
       cy="95.674133"
       style="fill:#ffffff;fill-opacity:1" /></g></svg>